<svg id="Layer_1" fill="#ecf0f1" enable-background="new 0 0 512.12 512.12" height="512" viewBox="0 0 512.12 512.12" width="512" xmlns="http://www.w3.org/2000/svg"><g><path d="m256.1 136.06c-74.99 0-136 61.01-136 136s61.01 136 136 136 136-61.01 136-136-61.01-136-136-136zm16 136c0 8.837-7.163 16-16 16h-63.551c-8.618 0-16.031-6.626-16.431-15.235-.428-9.188 6.888-16.765 15.982-16.765h43c2.761 0 5-2.239 5-5v-66.551c0-8.618 6.626-16.03 15.235-16.431 9.188-.428 16.765 6.888 16.765 15.982z"/><path d="m404.356 450.535c-5.649 4.711-11.488 9.129-17.504 13.249-2.049 1.403-2.727 4.117-1.616 6.338l16.553 33.097c3.952 7.905 13.578 11.096 21.47 7.15 7.9-3.95 11.1-13.56 7.15-21.47l-18.381-36.77c-1.442-2.886-5.193-3.66-7.672-1.594z"/><path d="m81.79 488.899c-5.35 10.714 2.517 23.16 14.3 23.16 5.87 0 11.52-3.24 14.32-8.84l16.553-33.097c1.111-2.221.433-4.935-1.616-6.338-6.015-4.12-11.855-8.538-17.504-13.249-2.478-2.067-6.23-1.292-7.673 1.594z"/><path d="m437.94 188.81c-29.697-64.623-92.475-110.265-165.84-116.101v-40.649h8c8.836 0 16-7.164 16-16s-7.164-16-16-16h-48c-8.836 0-16 7.164-16 16s7.164 16 16 16h8v40.649c-31.826 2.532-62.273 12.609-89 29.19-113.437 70.249-127.671 228.46-29.69 317.89 76.384 69.733 193.074 69.662 269.38 0 64.792-59.137 83.17-152.505 47.15-230.979zm-181.84 251.25c-92.64 0-168-75.36-168-168s75.36-168 168-168 168 75.36 168 168-75.36 168-168 168z"/><path d="m485.88 59.29c-26.277-26.292-64.929-32.955-97.58-19.41-11.66 4.826-19.506 10.569-27.165 17.688-2.537 2.358-1.911 6.511 1.167 8.098 48.782 25.145 89.618 68.675 110.531 123.278 1.301 3.398 5.645 4.358 8.218 1.786l4.819-4.819c35.044-35.025 34.954-91.698.01-126.621z"/><path d="m26.24 59.29c26.277-26.292 64.929-32.955 97.58-19.41 11.66 4.826 19.506 10.569 27.165 17.688 2.537 2.358 1.911 6.511-1.167 8.098-48.782 25.144-89.618 68.674-110.531 123.277-1.301 3.398-5.645 4.358-8.218 1.786l-4.819-4.819c-35.044-35.024-34.953-91.697-.01-126.62z"/></g></svg>